<?xml version="1.0" standalone="no"?>
<!DOCTYPE svg PUBLIC "-//W3C//DTD SVG 20010904//EN"
 "http://www.w3.org/TR/2001/REC-SVG-20010904/DTD/svg10.dtd">
<svg version="1.0" xmlns="http://www.w3.org/2000/svg"
 width="300.000000pt" height="300.000000pt" viewBox="0 0 300.000000 300.000000"
 preserveAspectRatio="xMidYMid meet">
<metadata>
Created by potrace 1.10, written by Peter Selinger 2001-2011
</metadata>
<g transform="translate(0.000000,300.000000) scale(0.100000,-0.100000)"
fill="#000000" stroke="none">
<path d="M1315 2989 c-234 -31 -463 -119 -660 -252 -126 -86 -314 -275 -398
-403 -339 -511 -339 -1157 0 -1668 85 -129 282 -328 403 -407 175 -116 345
-186 550 -230 142 -31 407 -33 555 -5 901 168 1444 1083 1155 1947 -171 514
-592 887 -1125 999 -116 24 -369 34 -480 19z m368 -264 c483 -73 885 -432
1011 -903 30 -112 42 -202 28 -202 -6 0 -13 6 -16 13 -4 6 -4 -6 -1 -28 3 -22
5 -65 6 -95 l1 -55 14 30 c14 28 14 24 9 -55 -4 -51 -12 -91 -21 -101 -8 -8
-14 -26 -14 -39 0 -13 -7 -32 -16 -42 -16 -16 -16 -18 0 -24 9 -3 16 -13 16
-21 0 -9 -6 -13 -15 -9 -13 5 -60 -35 -102 -88 -24 -29 -13 -37 14 -11 44 40
67 30 42 -17 -7 -13 -7 -24 -1 -30 12 -12 -25 -51 -70 -74 -18 -9 -26 -19 -20
-23 14 -8 27 -61 15 -61 -6 0 -15 10 -21 22 -11 21 -11 21 -6 -7 l6 -30 -21
25 c-11 14 -21 28 -21 32 0 4 -7 5 -16 1 -11 -4 -12 -9 -5 -16 6 -6 11 -22 11
-36 l-1 -26 -15 25 -15 25 6 -28 c7 -34 -8 -35 -23 -2 -14 30 -32 32 -39 5 -7
-26 -13 -25 -38 6 -21 26 -22 27 -49 9 -51 -34 -35 -8 35 54 68 61 70 64 52
83 -9 11 -25 17 -35 15 -10 -3 -18 0 -18 8 0 7 -9 24 -20 38 l-20 25 -55 -54
c-30 -31 -55 -58 -55 -61 0 -3 13 -20 29 -38 28 -32 28 -34 15 -84 -7 -28 -15
-55 -19 -60 -7 -12 15 -61 27 -61 5 0 35 14 68 30 66 33 70 34 70 19 0 -5 -32
-24 -71 -42 -40 -17 -67 -33 -62 -34 5 -2 51 15 103 38 52 22 117 49 143 60
47 19 48 19 37 0 -5 -11 -20 -23 -31 -26 -15 -5 -18 -9 -9 -15 9 -5 2 -19 -25
-46 -20 -22 -46 -52 -56 -69 -20 -32 -27 -18 -8 17 9 17 8 19 -8 16 -13 -2
-19 -14 -21 -46 -2 -32 -9 -46 -27 -58 -29 -19 -85 -11 -85 12 0 10 5 12 13 8
9 -6 9 -5 0 8 -14 16 -8 28 10 24 7 -2 9 -1 5 1 -15 9 -8 42 10 46 9 3 -2 5
-25 6 -43 1 -43 1 -43 -34 l0 -35 -50 0 -50 0 0 48 0 47 -29 -50 c-16 -27 -40
-61 -54 -74 -25 -22 -28 -23 -72 -10 -25 7 -44 16 -43 19 2 3 31 32 66 64 51
49 62 55 62 38 0 -19 -47 -84 -75 -104 -6 -5 -3 -8 7 -8 26 0 85 57 98 94 6
20 9 80 7 142 -3 89 -7 117 -25 149 -19 35 -21 36 -14 10 15 -62 7 -140 -21
-196 -36 -74 -91 -125 -188 -173 -46 -23 -85 -46 -87 -53 -2 -7 12 -15 32 -19
20 -3 36 -9 36 -13 0 -16 -27 -40 -50 -44 -24 -4 -24 -4 3 -6 16 0 27 -7 27
-15 0 -10 -12 -13 -47 -10 l-48 3 45 -10 c40 -10 69 -31 70 -52 0 -4 -9 -15
-20 -24 -11 -10 -20 -23 -20 -31 0 -9 -5 -10 -19 -2 -34 18 -43 11 -22 -17 25
-31 21 -39 -11 -23 -19 10 -21 10 -10 -1 16 -18 17 -48 0 -31 -14 14 -32 16
-24 3 7 -11 -138 -34 -165 -26 -19 6 -17 9 19 25 72 32 91 110 44 178 -10 15
-25 48 -33 74 l-13 48 -13 -43 c-7 -23 -31 -64 -53 -91 -48 -58 -52 -71 -9
-30 17 16 42 52 55 79 15 31 24 42 24 29 0 -54 -77 -164 -116 -164 -22 0 -16
25 22 94 22 42 42 97 53 151 9 47 20 83 22 80 9 -8 -9 109 -21 140 -6 15 -19
40 -30 55 -26 37 -25 40 10 40 34 0 38 7 13 26 -17 13 -17 13 0 14 9 0 36 11
58 25 22 14 51 30 65 35 56 22 85 164 43 211 -18 21 -20 21 -13 4 16 -45 15
-81 -7 -120 -11 -22 -28 -52 -35 -67 -17 -30 -75 -68 -106 -68 -11 0 -22 -8
-25 -20 -3 -11 -11 -20 -18 -20 -7 0 -19 -17 -28 -37 -14 -36 -15 -36 -26 -15
-9 17 -9 22 1 22 10 0 10 2 1 8 -8 5 -2 15 18 32 74 62 85 76 86 121 2 40 1
41 -7 15 -14 -45 -38 -64 -99 -76 -85 -17 -91 -20 -104 -47 -6 -13 -23 -31
-39 -39 -15 -8 -31 -26 -34 -40 -7 -27 3 -46 14 -27 19 31 139 -4 162 -47 27
-50 -2 -119 -69 -168 -22 -16 -37 -32 -34 -36 12 -12 -95 -6 -143 9 -27 8 -53
15 -57 15 -19 0 14 -37 50 -55 25 -14 37 -27 35 -38 -2 -10 4 -17 13 -17 22 0
19 -6 -17 -41 -31 -29 -29 -31 17 -13 13 5 8 -4 -15 -25 l-34 -33 -23 28 c-22
28 -23 28 -23 7 0 -13 6 -23 13 -23 6 0 13 -10 14 -22 5 -57 15 -86 29 -81 8
3 14 0 14 -5 0 -18 -16 -22 -52 -11 -35 9 -36 11 -31 48 5 33 1 42 -25 69 -17
18 -34 27 -37 22 -3 -6 -20 -10 -36 -10 -23 0 -34 7 -47 30 -17 30 -52 40 -80
21 -11 -6 -7 -13 14 -30 15 -12 24 -24 21 -27 -3 -3 -39 25 -79 63 -131 125
-167 155 -177 149 -5 -4 -13 -1 -17 5 -5 8 -3 9 7 4 8 -5 3 4 -10 19 -16 17
-28 23 -35 16 -6 -6 -4 -16 7 -28 34 -37 8 -46 -30 -10 -28 26 -30 48 -3 48
23 0 24 10 9 80 -6 28 -9 54 -6 57 12 11 55 -45 52 -68 -1 -13 0 -16 2 -6 2 9
8 17 12 17 8 0 70 -68 110 -121 25 -32 44 -79 32 -79 -4 0 -40 33 -79 74 -40
41 -72 71 -72 67 0 -3 46 -51 102 -106 57 -55 97 -93 90 -86 -19 23 -14 31 19
31 39 0 89 48 89 85 0 51 -24 72 -102 89 -15 4 -50 26 -78 51 -51 45 -72 53
-100 35 -11 -7 -25 1 -57 32 -22 22 -46 38 -51 34 -15 -9 -32 17 -22 33 4 8 6
21 3 30 -5 13 -3 14 8 3 7 -6 17 -12 22 -12 5 0 -1 9 -14 19 -13 11 -26 15
-30 10 -9 -15 -58 15 -64 40 -7 27 -10 26 -19 -11 -5 -21 -3 -26 7 -22 7 2 22
-5 32 -16 26 -29 10 -53 -38 -54 -36 -1 -37 0 -70 74 -49 108 -60 137 -52 149
3 6 2 11 -4 11 -12 0 -32 86 -37 160 -4 51 -3 53 11 35 77 -102 129 -165 133
-161 2 3 -13 27 -35 53 -99 119 -133 174 -133 214 0 43 9 49 28 19 23 -37 32
-21 32 53 0 90 20 160 56 198 15 16 23 29 16 29 -22 0 -86 -65 -104 -107 -10
-24 -20 -43 -22 -43 -7 0 17 155 36 225 130 494 546 853 1063 918 74 10 228 6
318 -8z m930 -1752 c2 -5 -2 -19 -9 -32 l-12 -23 -12 22 c-10 18 -9 24 1 31
17 11 27 11 32 2z m-1238 -43 c3 -5 -3 -10 -15 -10 -12 0 -18 5 -15 10 3 6 10
10 15 10 5 0 12 -4 15 -10z m-880 -50 c-11 -5 -31 -8 -45 -8 -23 0 -22 1 5 8
42 11 65 11 40 0z m1940 -11 c4 -11 4 -23 0 -27 -7 -7 -25 17 -25 36 0 20 18
14 25 -9z m-1669 -110 c73 -64 86 -85 59 -96 -12 -4 -37 14 -87 65 -61 63 -76
92 -49 92 4 0 39 -27 77 -61z m754 -68 c-12 -76 -36 -142 -55 -150 -5 -2 -26
-21 -46 -41 -41 -41 -55 -99 -44 -181 6 -44 5 -49 -13 -49 -37 0 -44 110 -12
190 26 66 26 67 -11 35 -17 -14 -34 -23 -37 -21 -10 10 21 37 80 68 64 34 81
59 93 131 5 30 9 36 19 28 15 -13 25 11 27 64 0 17 3 24 6 16 3 -7 0 -48 -7
-90z m-640 9 c0 -5 -4 -10 -10 -10 -5 0 -10 5 -10 10 0 6 5 10 10 10 6 0 10
-4 10 -10z m-235 -30 c3 -5 4 -10 1 -10 -3 0 -8 5 -11 10 -3 6 -4 10 -1 10 3
0 8 -4 11 -10z m172 -47 c-4 -3 -7 0 -7 7 0 7 3 10 7 7 3 -4 3 -10 0 -14z m8
-118 c55 -52 95 -94 89 -95 -27 -1 -234 149 -234 170 0 7 14 14 40 19 3 0 50
-42 105 -94z m1405 79 c0 -12 -10 -14 -52 -12 -74 4 -77 28 -4 28 44 0 56 -3
56 -16z m-104 -76 c5 -7 15 -1 31 18 22 28 24 28 50 14 14 -8 28 -20 30 -25 7
-21 -180 -129 -299 -175 -56 -21 -113 -26 -122 -11 -10 15 6 43 20 37 7 -3 16
-1 19 4 3 5 30 6 60 3 66 -7 110 9 130 48 19 37 19 92 -1 131 l-16 30 46 -31
c25 -17 48 -36 52 -43z m-149 -55 c-4 -3 -7 0 -7 7 0 7 3 10 7 7 3 -4 3 -10 0
-14z m-689 -78 c-34 -46 -48 -55 -48 -32 0 19 73 102 78 88 2 -6 -11 -32 -30
-56z m142 30 c0 -8 -4 -15 -10 -15 -5 0 -10 7 -10 15 0 8 5 15 10 15 6 0 10
-7 10 -15z m187 -2 c-4 -3 -7 0 -7 7 0 7 3 10 7 7 3 -4 3 -10 0 -14z m-422 -3
c3 -5 1 -10 -4 -10 -6 0 -11 5 -11 10 0 6 2 10 4 10 3 0 8 -4 11 -10z m-198
-27 c-4 -3 -10 -3 -14 0 -3 4 0 7 7 7 7 0 10 -3 7 -7z m830 -69 c-3 -3 -12 -4
-19 -1 -8 3 -5 6 6 6 11 1 17 -2 13 -5z m-337 -24 l25 -20 -37 0 c-41 0 -41 0
-32 24 8 20 13 20 44 -4z m-73 -7 c-4 -3 -7 0 -7 7 0 7 3 10 7 7 3 -4 3 -10 0
-14z"/>
<path d="M1404 2597 c-3 -8 -4 -54 -2 -103 l3 -89 108 -3 c115 -3 125 2 87 43
-18 20 -19 23 -5 35 23 19 19 85 -7 110 -18 17 -35 20 -100 20 -56 0 -80 -4
-84 -13z m146 -43 c11 -12 11 -18 -2 -30 -16 -16 -48 -9 -48 10 0 13 20 36 31
36 4 0 12 -7 19 -16z"/>
<path d="M1195 2571 l-60 -18 2 -47 c2 -53 18 -80 45 -73 14 4 20 -4 29 -35
10 -39 11 -40 46 -35 52 9 63 22 52 60 -8 27 -6 34 12 48 18 13 20 22 14 50
-16 76 -32 82 -140 50z"/>
<path d="M1718 2503 c-43 -43 -78 -84 -78 -90 0 -7 17 -17 38 -22 184 -48 202
-50 202 -23 -1 41 -56 207 -70 210 -8 1 -50 -33 -92 -75z m60 -57 c4 -21 -14
-37 -35 -29 -14 5 -18 35 -6 47 12 12 38 1 41 -18z"/>
<path d="M980 2459 l-24 -50 -60 3 c-50 2 -61 0 -64 -14 -4 -22 86 -178 103
-178 25 0 195 104 195 120 0 8 -21 50 -46 93 -54 94 -71 98 -104 26z m88 -105
c3 -22 -21 -39 -39 -28 -11 6 -12 38 -2 48 13 13 38 1 41 -20z m-83 -49 c0
-22 -31 -33 -48 -16 -7 7 -6 15 3 26 17 21 45 15 45 -10z"/>
<path d="M1998 2493 c-27 -32 -88 -140 -88 -156 0 -19 184 -132 199 -123 19
12 102 159 99 175 -3 13 -16 16 -63 16 l-59 0 -25 49 c-30 57 -41 64 -63 39z
m20 -147 c-2 -13 -10 -21 -23 -21 -23 0 -33 34 -14 45 20 13 40 -1 37 -24z
m77 -32 c12 -12 13 -19 4 -30 -6 -8 -18 -14 -26 -14 -19 0 -28 27 -13 45 15
19 15 19 35 -1z"/>
<path d="M1335 2289 c-11 -17 106 -249 125 -249 8 0 24 14 35 32 17 29 19 30
29 14 25 -42 34 -49 49 -43 9 3 43 58 74 122 49 98 56 117 43 125 -21 14 -347
13 -355 -1z m145 -54 c17 -20 5 -45 -20 -45 -23 0 -35 22 -26 45 7 19 30 19
46 0z m119 1 c17 -20 2 -46 -25 -46 -29 0 -41 24 -24 45 16 19 34 19 49 1z"/>
<path d="M2234 2274 c-63 -31 -81 -105 -41 -165 42 -62 114 -78 163 -36 34 30
27 52 -21 73 -37 15 -46 40 -19 51 10 4 25 -4 41 -21 19 -21 28 -24 38 -16 28
23 -16 92 -72 116 -40 17 -51 17 -89 -2z"/>
<path d="M664 2257 c-8 -22 47 -218 64 -224 15 -6 172 143 172 163 0 6 -44 23
-97 38 -54 15 -106 30 -116 32 -9 3 -20 -1 -23 -9z m116 -103 c11 -12 11 -18
-2 -30 -16 -16 -48 -9 -48 10 0 13 20 36 31 36 4 0 12 -7 19 -16z"/>
<path d="M1085 2196 c-52 -22 -85 -71 -85 -123 0 -82 51 -133 132 -133 109 0
179 108 128 199 -37 64 -107 87 -175 57z m80 -76 c0 -18 -6 -26 -23 -28 -24
-4 -38 18 -28 44 3 9 15 14 28 12 17 -2 23 -10 23 -28z"/>
<path d="M1845 2199 c-82 -23 -121 -129 -73 -199 27 -40 79 -70 123 -70 69 0
135 66 135 136 0 81 -104 156 -185 133z m110 -109 c0 -18 -6 -26 -23 -28 -24
-4 -38 18 -28 44 3 9 15 14 28 12 17 -2 23 -10 23 -28z"/>
<path d="M514 2075 c-9 -14 -13 -32 -9 -42 9 -24 5 -29 -16 -25 -18 3 -49 -42
-49 -72 0 -17 155 -110 173 -103 6 3 20 19 30 36 17 29 17 31 -3 51 -27 27
-25 31 10 23 33 -6 59 15 60 49 0 16 -143 108 -168 108 -6 0 -19 -11 -28 -25z"/>
<path d="M2397 2029 c-43 -22 -80 -46 -83 -53 -6 -15 83 -186 96 -186 4 0 24
23 44 50 34 47 38 50 81 50 32 0 45 4 45 14 0 23 -81 166 -93 166 -7 -1 -47
-19 -90 -41z m21 -83 c5 -24 -10 -38 -31 -30 -17 6 -23 35 -10 48 12 12 38 1
41 -18z"/>
<path d="M2101 1950 c-68 -57 -81 -76 -81 -120 0 -71 57 -130 126 -130 36 0
53 8 106 48 34 26 64 54 66 63 2 14 -106 164 -132 181 -18 12 -22 10 -85 -42z
m134 -120 c0 -18 -6 -26 -23 -28 -24 -4 -38 18 -28 44 3 9 15 14 28 12 17 -2
23 -10 23 -28z"/>
<path d="M888 1934 l-26 -27 -28 22 c-24 19 -30 20 -48 8 -34 -22 -53 -64 -40
-84 20 -32 163 -143 178 -137 17 6 116 128 116 142 0 13 -101 102 -115 102 -6
0 -22 -12 -37 -26z"/>
<path d="M723 1679 c-17 -18 -24 -19 -42 -9 -34 18 -59 3 -87 -52 -39 -76 -34
-84 80 -136 67 -30 104 -42 113 -36 23 14 72 135 73 176 0 28 -6 41 -26 57
-35 27 -84 27 -111 0z m76 -52 c15 -19 -9 -50 -32 -41 -17 6 -23 35 -10 47 10
11 30 8 42 -6z"/>
<path d="M2325 1672 c-62 -26 -67 -32 -60 -59 5 -21 1 -26 -35 -40 -45 -18
-51 -42 -25 -93 17 -33 27 -35 75 -19 30 11 34 10 50 -11 l18 -23 57 23 c31
13 59 29 62 37 5 13 -51 166 -70 191 -12 16 -23 15 -72 -6z"/>
<path d="M451 1622 c-86 -86 -111 -231 -55 -311 16 -22 32 -41 35 -41 4 0 6
48 5 108 -1 121 15 182 65 251 42 59 11 54 -50 -7z"/>
<path d="M2573 1635 c22 -44 37 -137 37 -222 0 -48 4 -73 11 -73 7 0 18 -8 25
-17 19 -27 28 -9 32 66 6 99 -18 172 -74 230 -40 40 -44 42 -31 16z"/>
<path d="M2546 1476 c9 -22 16 -71 17 -108 1 -43 5 -67 12 -65 28 9 10 142
-25 187 l-20 25 16 -39z"/>
<path d="M570 1490 c13 -9 11 -14 -13 -31 -20 -15 -26 -27 -22 -41 4 -10 1
-25 -5 -33 -9 -11 -9 -18 4 -30 15 -15 16 -14 17 12 1 39 14 70 23 55 4 -7 11
-12 17 -12 12 0 12 37 0 44 -5 3 -7 15 -4 26 4 15 0 20 -13 20 -16 0 -17 -2
-4 -10z"/>
<path d="M576 1381 c-4 -7 -5 -15 -2 -18 9 -9 19 4 14 18 -4 11 -6 11 -12 0z"/>
<path d="M2513 1349 c-27 -33 -53 -107 -53 -151 0 -52 7 -58 35 -28 10 11 21
17 26 15 10 -7 59 57 52 68 -3 4 -13 1 -24 -8 -17 -17 -18 -15 -21 51 -2 54
-5 64 -15 53z"/>
<path d="M567 1324 c-4 -4 -7 -14 -7 -23 0 -11 3 -12 11 -4 6 6 10 16 7 23 -2
6 -7 8 -11 4z"/>
<path d="M500 1310 c0 -5 5 -10 10 -10 6 0 10 5 10 10 0 6 -4 10 -10 10 -5 0
-10 -4 -10 -10z"/>
<path d="M527 1287 c-13 -33 -8 -114 8 -127 13 -11 15 -6 14 36 -1 27 -4 63
-8 79 -5 25 -8 27 -14 12z"/>
<path d="M1785 1268 c10 -41 -29 -161 -67 -204 -17 -19 -49 -45 -72 -56 -39
-20 -40 -21 -18 -29 17 -7 22 -14 17 -28 -12 -38 148 -47 213 -12 12 6 22 13
22 14 0 1 -18 1 -40 -1 -23 -2 -66 -1 -97 3 l-56 7 58 23 c95 39 147 105 144
185 -1 20 -5 16 -24 -25 -29 -60 -86 -118 -139 -140 l-39 -16 50 48 c28 28 56
66 63 87 14 44 9 141 -9 159 -10 9 -11 6 -6 -15z"/>
<path d="M665 1220 c-3 -5 -3 -15 1 -21 6 -11 23 6 24 24 0 10 -18 9 -25 -3z"/>
<path d="M730 1200 c0 -7 3 -10 7 -7 3 4 3 10 0 14 -4 3 -7 0 -7 -7z"/>
<path d="M1628 1165 c-4 -16 -27 -60 -52 -97 -47 -71 -40 -95 10 -35 36 43 56
92 52 131 l-3 31 -7 -30z"/>
<path d="M660 1160 c0 -5 7 -7 15 -4 8 4 15 8 15 10 0 2 -7 4 -15 4 -8 0 -15
-4 -15 -10z"/>
<path d="M740 1159 c0 -5 5 -7 10 -4 6 3 10 8 10 11 0 2 -4 4 -10 4 -5 0 -10
-5 -10 -11z"/>
<path d="M2380 1130 c-11 -21 -5 -60 9 -60 4 0 18 11 31 25 19 20 21 27 10 40
-17 21 -37 19 -50 -5z"/>
<path d="M675 1130 c3 -5 8 -10 11 -10 2 0 4 5 4 10 0 6 -5 10 -11 10 -5 0 -7
-4 -4 -10z"/>
<path d="M710 1124 c0 -8 5 -12 10 -9 6 4 8 11 5 16 -9 14 -15 11 -15 -7z"/>
<path d="M2140 1100 c0 -5 -7 -10 -15 -10 -9 0 -15 -9 -15 -25 0 -14 5 -25 11
-25 6 0 9 6 6 14 -7 17 11 36 35 36 10 0 18 5 18 10 0 6 -9 10 -20 10 -11 0
-20 -4 -20 -10z"/>
<path d="M2193 1083 c4 -3 10 -3 14 0 3 4 0 7 -7 7 -7 0 -10 -3 -7 -7z"/>
<path d="M471 1057 c-13 -21 -12 -21 5 -5 10 10 16 20 13 22 -3 3 -11 -5 -18
-17z"/>
<path d="M725 1037 c8 -20 12 -49 8 -70 -6 -37 19 -86 45 -87 7 0 15 -6 18
-14 3 -8 11 -13 19 -10 16 7 27 -21 19 -51 -5 -19 0 -27 25 -39 37 -20 55 -20
48 -2 -6 15 16 39 46 49 20 7 21 16 7 52 -8 20 -14 24 -34 19 -29 -7 -37 5
-40 57 -2 45 -47 102 -66 83 -11 -11 27 -90 78 -167 22 -32 23 -40 11 -48 -17
-11 -21 -11 -38 0 -12 8 -12 12 -2 25 11 13 11 20 -3 41 -20 30 -31 33 -16 4
20 -36 5 -30 -23 9 -45 62 -72 105 -86 140 -8 18 -17 35 -22 38 -5 2 -2 -11 6
-29z"/>
<path d="M2193 1043 c4 -3 10 -3 14 0 3 4 0 7 -7 7 -7 0 -10 -3 -7 -7z"/>
<path d="M934 1015 c-8 -13 -14 -32 -12 -42 2 -11 9 -3 20 25 19 47 16 54 -8
17z"/>
<path d="M1565 960 c3 -5 14 -10 23 -10 15 0 15 2 2 10 -20 13 -33 13 -25 0z"/>
<path d="M1545 899 c25 -76 31 -123 29 -199 l-3 -85 19 55 c27 74 26 154 -3
204 -26 46 -54 62 -42 25z"/>
<path d="M1600 916 c0 -2 8 -10 18 -17 15 -13 16 -12 3 4 -13 16 -21 21 -21
13z"/>
<path d="M545 900 c3 -5 8 -10 11 -10 3 0 2 5 -1 10 -3 6 -8 10 -11 10 -3 0
-2 -4 1 -10z"/>
<path d="M1680 752 c0 -12 19 -26 26 -19 2 2 -2 10 -11 17 -9 8 -15 8 -15 2z"/>
<path d="M1641 709 c-1 -33 4 -51 17 -62 27 -25 33 -21 17 11 -7 15 -18 43
-23 62 l-10 35 -1 -46z"/>
<path d="M1680 698 c0 -9 7 -19 16 -22 25 -10 27 -1 4 19 -17 15 -20 16 -20 3z"/>
<path d="M1022 674 c1 -9 9 -19 16 -22 9 -3 13 2 10 14 -1 9 -9 19 -16 22 -9
3 -13 -2 -10 -14z"/>
<path d="M1612 648 c-16 -21 -24 -76 -13 -95 9 -15 10 -13 11 14 0 40 12 48
35 23 35 -39 45 -21 14 25 -34 50 -33 50 -47 33z"/>
<path d="M2334 638 c3 -11 -1 -18 -12 -20 -16 -3 -16 -4 0 -10 20 -8 30 13 16
33 -8 11 -9 11 -4 -3z"/>
<path d="M1056 618 c3 -4 9 -8 15 -8 5 0 9 4 9 8 0 5 -7 9 -15 9 -8 0 -12 -4
-9 -9z"/>
<path d="M1110 577 c0 -27 18 -57 35 -57 21 0 19 10 -10 45 -19 24 -24 26 -25
12z"/>
</g>
</svg>
