<svg xmlns="http://www.w3.org/2000/svg" xmlns:xlink="http://www.w3.org/1999/xlink" xmlns:xodm="http://www.corel.com/coreldraw/odm/2003" xml:space="preserve" version="1.1" style="shape-rendering:geometricPrecision;text-rendering:geometricPrecision;image-rendering:optimizeQuality;" viewBox="0 0 846.66 1058.325" x="0px" y="0px" fill-rule="evenodd" clip-rule="evenodd"><defs><style type="text/css">
   
    .fil0 {fill:white;fill-rule:nonzero}
   
  </style></defs><g><path class="fil0" d="M159.16 232.13l621.97 0 0 -50.4c0,-19.44 -15.99,-35.43 -35.43,-35.43l-160.76 0c7.22,14.82 22.42,25.03 40.01,25.03 25.58,0 25.58,38.89 0,38.89 -39.34,0 -72.32,-27.26 -81.08,-63.92l-268.54 0c7.21,14.82 22.42,25.03 40.01,25.03 25.57,0 25.57,38.89 0,38.89 -39.35,0 -72.32,-27.26 -81.08,-63.92l-39.67 0c-19.45,0 -35.43,15.99 -35.43,35.43l0 50.4zm64.14 144.77c-25.6,0 -25.6,-38.88 0,-38.88l50.93 0c25.6,0 25.6,38.88 0,38.88l-50.93 0zm0 226.84c-25.6,0 -25.6,-38.89 0,-38.89l50.93 0c25.6,0 25.6,38.89 0,38.89l-50.93 0zm442.76 0c-25.6,0 -25.6,-38.89 0,-38.89l50.93 0c25.6,0 25.6,38.89 0,38.89l-50.93 0zm-147.59 0c-25.6,0 -25.6,-38.89 0,-38.89l50.93 0c25.6,0 25.6,38.89 0,38.89l-50.93 0zm-147.58 0c-25.6,0 -25.6,-38.89 0,-38.89l50.92 0c25.6,0 25.6,38.89 0,38.89l-50.92 0zm-147.59 -75.61c-25.6,0 -25.6,-38.89 0,-38.89l50.93 0c25.6,0 25.6,38.89 0,38.89l-50.93 0zm442.76 0c-25.6,0 -25.6,-38.89 0,-38.89l50.93 0c25.6,0 25.6,38.89 0,38.89l-50.93 0zm-147.59 0c-25.6,0 -25.6,-38.89 0,-38.89l50.93 0c25.6,0 25.6,38.89 0,38.89l-50.93 0zm-147.58 0c-25.6,0 -25.6,-38.89 0,-38.89l50.92 0c25.6,0 25.6,38.89 0,38.89l-50.92 0zm-147.59 -75.61c-25.6,0 -25.6,-38.89 0,-38.89l50.93 0c25.6,0 25.6,38.89 0,38.89l-50.93 0zm442.76 0c-25.6,0 -25.6,-38.89 0,-38.89l50.93 0c25.6,0 25.6,38.89 0,38.89l-50.93 0zm-147.59 0c-25.6,0 -25.6,-38.89 0,-38.89l50.93 0c25.6,0 25.6,38.89 0,38.89l-50.93 0zm-147.58 0c-25.6,0 -25.6,-38.89 0,-38.89l50.92 0c25.6,0 25.6,38.89 0,38.89l-50.92 0zm295.17 -75.62c-25.6,0 -25.6,-38.88 0,-38.88l50.93 0c25.6,0 25.6,38.88 0,38.88l-50.93 0zm-147.59 0c-25.6,0 -25.6,-38.88 0,-38.88l50.93 0c25.6,0 25.6,38.88 0,38.88l-50.93 0zm-147.58 0c-25.6,0 -25.6,-38.88 0,-38.88l50.92 0c25.6,0 25.6,38.88 0,38.88l-50.92 0zm-136.63 -269.49c8.76,-36.66 41.73,-63.92 81.08,-63.92 39.34,0 72.32,27.26 81.08,63.92l147.45 0c8.76,-36.66 41.74,-63.92 81.08,-63.92 39.34,0 72.32,27.26 81.08,63.92l39.67 0c40.92,0 74.32,33.4 74.32,74.32l0 547.12c0,40.91 -33.4,74.32 -74.32,74.32l-644.74 0c-40.92,0 -74.32,-33.41 -74.32,-74.32l0 -38.67c0,-10.74 8.71,-19.45 19.45,-19.45l74.18 0 0 -489c0,-40.92 33.4,-74.32 74.32,-74.32l39.67 0zm121.09 0c-7.22,-14.82 -22.42,-25.03 -40.01,-25.03 -17.59,0 -32.8,10.21 -40.01,25.03l80.02 0zm309.61 0c-7.22,-14.82 -22.42,-25.03 -40.01,-25.03 -17.59,0 -32.79,10.21 -40.01,25.03l80.02 0zm-505.8 563.32l531.66 0c10.74,0 19.45,8.71 19.45,19.45l0 38.67c0,19.44 15.98,35.43 35.43,35.43 19.44,0 35.43,-15.99 35.43,-35.43l0 -457.83 -621.97 0 0 399.71zm-58.2 93.55l579.45 0c-5.75,-10.55 -9.03,-22.62 -9.03,-35.43l0 -19.23 -605.85 0 0 19.23c0,19.44 15.99,35.43 35.43,35.43z"/></g></svg>